<svg width="24" height="24" viewBox="0 0 24 24" fill="none" xmlns="http://www.w3.org/2000/svg">
<path d="M21.0281 15.15C21.7405 13.1104 21.7405 10.8896 21.0281 8.85L21 8.775C20.3345 6.92132 19.1128 5.31836 17.5019 4.18516C15.891 3.05197 13.9695 2.44382 12 2.44382C10.0305 2.44382 8.10896 3.05197 6.49808 4.18516C4.8872 5.31836 3.66553 6.92132 2.99999 8.775L2.97186 8.85C2.2595 10.8896 2.2595 13.1104 2.97186 15.15L2.99999 15.225C3.66456 17.079 4.8854 18.6826 6.49569 19.8167C8.10598 20.9507 10.0272 21.5598 11.9967 21.5609C13.9662 21.5619 15.888 20.9548 17.4995 19.8224C19.111 18.69 20.3335 17.0877 21 15.2344L21.0281 15.15ZM9.34686 15.5625H14.6531C14.1187 17.2781 13.2094 18.8156 12 19.9969C10.7906 18.8156 9.88124 17.2781 9.34686 15.5625ZM9.06561 14.4375C8.72802 12.83 8.72802 11.17 9.06561 9.5625H14.9344C15.272 11.17 15.272 12.83 14.9344 14.4375H9.06561ZM3.56249 12C3.56054 11.1744 3.68058 10.353 3.91874 9.5625H7.91249C7.61242 11.1736 7.61242 12.8264 7.91249 14.4375H3.91874C3.68058 13.647 3.56054 12.8256 3.56249 12ZM14.6531 8.4375H9.34686C9.88124 6.72188 10.7906 5.18438 12 4.00313C13.2094 5.18438 14.1187 6.72188 14.6531 8.4375ZM16.0969 9.5625H20.0812C20.5565 11.1528 20.5565 12.8472 20.0812 14.4375H16.0969C16.3844 12.8252 16.3844 11.1748 16.0969 9.5625ZM19.65 8.4375H15.8344C15.3537 6.65901 14.4572 5.02023 13.2187 3.65625C14.6028 3.85842 15.915 4.40112 17.0375 5.23564C18.16 6.07016 19.0577 7.17037 19.65 8.4375ZM10.7812 3.65625C9.54282 5.02023 8.64631 6.65901 8.16561 8.4375H4.34999C4.9423 7.17037 5.84 6.07016 6.96251 5.23564C8.08502 4.40112 9.3972 3.85842 10.7812 3.65625ZM4.34999 15.5625H8.16561C8.64827 17.343 9.54445 18.9844 10.7812 20.3531C9.39735 20.1468 8.08597 19.6015 6.96388 18.7656C5.8418 17.9298 4.94384 16.8294 4.34999 15.5625ZM13.2187 20.3531C14.4555 18.9844 15.3517 17.343 15.8344 15.5625H19.65C19.0561 16.8294 18.1582 17.9298 17.0361 18.7656C15.914 19.6015 14.6026 20.1468 13.2187 20.3531Z" fill="#2f2e41"/>
</svg>
